<?xml version="1.0" standalone="no"?>
<!DOCTYPE svg PUBLIC "-//W3C//DTD SVG 20010904//EN"
 "http://www.w3.org/TR/2001/REC-SVG-20010904/DTD/svg10.dtd">
<svg version="1.0" xmlns="http://www.w3.org/2000/svg"
 width="414.000000pt" height="414.000000pt" viewBox="0 0 414.000000 414.000000"
 preserveAspectRatio="xMidYMid meet">
<metadata>
Created by potrace 1.14, written by Peter Selinger 2001-2017
</metadata>
<g transform="translate(0.000000,414.000000) scale(0.100000,-0.100000)"
fill="#000000" stroke="none">
<path d="M2037 4134 c-1 -1 -47 -4 -102 -8 -55 -3 -111 -8 -125 -10 -14 -3
-41 -7 -60 -10 -144 -23 -349 -87 -489 -153 -498 -237 -881 -699 -1014 -1224
-8 -31 -33 -84 -56 -118 -72 -105 -120 -236 -135 -365 -6 -45 -7 -46 68 62 32
45 59 82 61 82 1 0 3 -55 2 -122 -1 -110 7 -229 18 -285 2 -11 6 -38 9 -59 4
-22 17 -82 31 -134 92 -367 298 -701 590 -958 l48 -42 1 -277 c1 -298 3 -309
53 -332 17 -8 360 -11 1114 -11 l1091 0 29 29 c16 16 30 35 30 43 1 7 2 126 3
265 l1 252 75 64 c273 233 467 525 574 862 29 94 52 184 60 240 4 22 8 54 11
70 15 95 21 336 11 419 l-3 28 23 -28 c13 -16 45 -60 71 -99 26 -38 48 -72 50
-74 10 -14 11 11 2 45 -38 144 -81 242 -149 344 -20 30 -44 84 -54 120 -123
458 -442 875 -852 1118 -146 86 -388 187 -494 206 -14 2 -32 7 -40 10 -31 11
-179 33 -282 42 -73 5 -168 10 -171 8z"/>
</g>
</svg>
